<?xml version="1.0" encoding="UTF-8" standalone="no"?><!DOCTYPE svg PUBLIC "-//W3C//DTD SVG 1.1//EN" "http://www.w3.org/Graphics/SVG/1.1/DTD/svg11.dtd"><svg width="100%" height="100%" viewBox="0 0 211 46" version="1.1" xmlns="http://www.w3.org/2000/svg" xmlns:xlink="http://www.w3.org/1999/xlink" xml:space="preserve" style="fill-rule:evenodd;clip-rule:evenodd;stroke-linejoin:round;stroke-miterlimit:1.41421;"><g><path d="M79.926,34.53l0,-4.473l-0.87,0l0,2.959l-1.862,-2.959l-1.085,0l0,4.473l0.87,0l0,-3.173l2.033,3.173l0.914,0Z" style="fill-rule:nonzero;"/><path d="M83.75,34.53l0,-0.819l-1.931,0l0,-1.036l1.748,0l0,-0.775l-1.748,0l0,-1.023l1.931,0l0,-0.82l-2.801,0l0,4.473l2.801,0Z" style="fill-rule:nonzero;"/><path d="M88.236,30.057l-1.016,0l-0.978,1.546l-0.959,-1.546l-1.047,0l1.464,2.234l-1.471,2.239l1.023,0l0.971,-1.545l0.966,1.545l1.054,0l-1.471,-2.233l1.464,-2.24Z" style="fill-rule:nonzero;"/><path d="M90.514,34.631c0.959,0 1.722,-0.586 1.722,-1.684l0,-2.89l-0.87,0l0,2.827c0,0.587 -0.322,0.896 -0.852,0.896c-0.518,0 -0.846,-0.309 -0.846,-0.896l0,-2.827l-0.87,0l0,2.89c0,1.098 0.763,1.684 1.716,1.684Z" style="fill-rule:nonzero;"/><path d="M96.224,31.123c-0.101,-0.505 -0.517,-1.16 -1.602,-1.16c-0.846,0 -1.558,0.605 -1.558,1.4c0,0.675 0.46,1.136 1.173,1.281l0.625,0.126c0.347,0.07 0.543,0.272 0.543,0.53c0,0.316 -0.259,0.55 -0.727,0.55c-0.631,0 -0.94,-0.398 -0.978,-0.84l-0.807,0.215c0.07,0.637 0.593,1.4 1.779,1.4c1.041,0 1.615,-0.693 1.615,-1.381c0,-0.631 -0.435,-1.162 -1.249,-1.319l-0.625,-0.12c-0.328,-0.063 -0.486,-0.259 -0.486,-0.505c0,-0.297 0.278,-0.568 0.701,-0.568c0.568,0 0.77,0.385 0.814,0.631l0.782,-0.24Z" style="fill-rule:nonzero;"/><path d="M100.723,34.53l0,-4.473l-0.876,0l0,1.799l-1.951,0l0,-1.799l-0.87,0l0,4.473l0.87,0l0,-1.855l1.951,0l0,1.855l0.876,0Z" style="fill-rule:nonzero;"/><path d="M103.418,34.631c0.959,0 1.722,-0.586 1.722,-1.684l0,-2.89l-0.87,0l0,2.827c0,0.587 -0.322,0.896 -0.852,0.896c-0.518,0 -0.846,-0.309 -0.846,-0.896l0,-2.827l-0.87,0l0,2.89c0,1.098 0.762,1.684 1.716,1.684Z" style="fill-rule:nonzero;"/><path d="M106.119,30.057l0,4.473l1.728,0c0.839,0 1.381,-0.523 1.381,-1.249c0,-0.555 -0.353,-0.953 -0.788,-1.06c0.372,-0.126 0.65,-0.498 0.65,-0.959c0,-0.694 -0.492,-1.205 -1.363,-1.205l-1.608,0Zm0.857,1.849l0,-1.117l0.612,0c0.423,0 0.644,0.214 0.644,0.555c0,0.341 -0.24,0.562 -0.637,0.562l-0.619,0Zm0,1.899l0,-1.18l0.72,0c0.435,0 0.662,0.246 0.662,0.6c0,0.359 -0.252,0.58 -0.675,0.58l-0.707,0Z" style="fill-rule:nonzero;"/><rect x="109.74" y="32.285" width="1.83" height="0.744" style="fill-rule:nonzero;"/><path d="M114.39,34.625c1.256,0 1.899,-0.832 2.069,-1.52l-0.813,-0.246c-0.12,0.416 -0.493,0.915 -1.256,0.915c-0.719,0 -1.388,-0.524 -1.388,-1.477c0,-1.016 0.706,-1.496 1.375,-1.496c0.776,0 1.123,0.474 1.231,0.903l0.82,-0.259c-0.177,-0.726 -0.814,-1.482 -2.051,-1.482c-1.199,0 -2.277,0.908 -2.277,2.334c0,1.426 1.041,2.328 2.29,2.328Z" style="fill-rule:nonzero;"/><path d="M120.05,34.53l0,-0.832l-1.994,0l0,-3.641l-0.87,0l0,4.473l2.864,0Z" style="fill-rule:nonzero;"/><rect x="120.719" y="30.057" width="0.883" height="4.473" style="fill-rule:nonzero;"/><path d="M125.426,34.53l0,-0.819l-1.931,0l0,-1.036l1.748,0l0,-0.775l-1.748,0l0,-1.023l1.931,0l0,-0.82l-2.801,0l0,4.473l2.801,0Z" style="fill-rule:nonzero;"/><path d="M130.114,34.53l0,-4.473l-0.87,0l0,2.959l-1.862,-2.959l-1.085,0l0,4.473l0.87,0l0,-3.173l2.033,3.173l0.914,0Z" style="fill-rule:nonzero;"/><path d="M134.43,30.883l0,-0.826l-3.703,0l0,0.826l1.413,0l0,3.647l0.876,0l0,-3.647l1.414,0Z" style="fill-rule:nonzero;"/><g id="container"><path id="Forma-1-copy" d="M104.914,10.09c0.045,0.001 0.089,0.003 0.133,0.008c0.097,0.01 0.192,0.03 0.284,0.061c0.087,0.028 0.17,0.065 0.249,0.109c1.768,1.008 3.539,2.01 5.289,3.049c0.094,0.056 0.181,0.123 0.259,0.2c0.17,0.167 0.294,0.378 0.358,0.608c0.032,0.112 0.048,0.228 0.051,0.345c0.025,2.036 0.025,4.072 0,6.108c-0.003,0.117 -0.019,0.233 -0.051,0.345c-0.064,0.23 -0.188,0.44 -0.358,0.608c-0.078,0.077 -0.165,0.144 -0.259,0.2c-1.753,1.041 -3.519,2.059 -5.299,3.054c-0.092,0.051 -0.19,0.092 -0.292,0.121c-0.233,0.065 -0.483,0.068 -0.717,0.008c-0.114,-0.029 -0.223,-0.073 -0.325,-0.129c-1.78,-0.995 -3.546,-2.013 -5.299,-3.054c-0.094,-0.056 -0.181,-0.123 -0.259,-0.2c-0.169,-0.168 -0.294,-0.378 -0.358,-0.608c-0.031,-0.112 -0.048,-0.228 -0.05,-0.345c-0.026,-2.036 -0.026,-4.072 0,-6.108c0.002,-0.117 0.019,-0.233 0.05,-0.345c0.064,-0.23 0.189,-0.441 0.358,-0.608c0.078,-0.077 0.165,-0.144 0.259,-0.2c1.753,-1.041 3.519,-2.059 5.299,-3.054c0.079,-0.044 0.163,-0.08 0.249,-0.108c0.086,-0.027 0.174,-0.046 0.262,-0.056c0.045,-0.005 0.089,-0.008 0.134,-0.008c0.011,-0.001 0.022,-0.001 0.033,-0.001Zm-0.019,0.378c-0.106,0.002 -0.21,0.019 -0.311,0.052c-0.06,0.021 -0.117,0.047 -0.173,0.078c-1.764,1.006 -3.533,2.006 -5.28,3.043c-0.077,0.047 -0.148,0.103 -0.21,0.169c-0.115,0.121 -0.199,0.27 -0.241,0.432c-0.021,0.079 -0.031,0.161 -0.032,0.243c-0.009,2.029 -0.025,4.058 0,6.086c0.001,0.082 0.012,0.164 0.034,0.243c0.046,0.171 0.14,0.329 0.267,0.453c0.057,0.056 0.121,0.104 0.19,0.144c1.755,1.022 3.507,2.052 5.28,3.043c0.077,0.043 0.158,0.075 0.244,0.096c0.167,0.042 0.345,0.039 0.512,-0.008c0.076,-0.022 0.15,-0.053 0.22,-0.092c1.765,-1.005 3.533,-2.005 5.28,-3.043c0.075,-0.045 0.144,-0.1 0.205,-0.163c0.118,-0.122 0.204,-0.274 0.247,-0.438c0.02,-0.079 0.031,-0.161 0.032,-0.243c0.008,-2.029 0.024,-4.058 0,-6.086c-0.002,-0.082 -0.013,-0.164 -0.034,-0.243c-0.047,-0.171 -0.14,-0.329 -0.268,-0.453c-0.057,-0.056 -0.121,-0.104 -0.189,-0.144c-1.756,-1.023 -3.508,-2.052 -5.281,-3.044c-0.062,-0.034 -0.128,-0.062 -0.197,-0.082c-0.088,-0.027 -0.179,-0.041 -0.271,-0.043c-0.008,0 -0.016,0 -0.024,0Z" style="fill:#a1b4c5;fill-opacity:0.4;"/></g><path d="M107.75,15.144l-0.025,-0.026c-0.587,-0.586 -1.547,-0.586 -2.133,0l-1.359,1.36c-0.587,0.586 -0.587,1.546 0,2.133l0.025,0.025c0.048,0.049 0.1,0.093 0.154,0.134l0.497,-0.498c-0.058,-0.034 -0.113,-0.075 -0.162,-0.125l-0.026,-0.025c-0.318,-0.319 -0.318,-0.837 0,-1.155l1.36,-1.36c0.318,-0.318 0.836,-0.318 1.155,0l0.025,0.026c0.318,0.318 0.318,0.836 0,1.155l-0.615,0.615c0.107,0.263 0.157,0.544 0.153,0.825l0.951,-0.951c0.587,-0.587 0.587,-1.547 0,-2.133Z" style="fill:#35363e;"/><path d="M105.741,17.102c-0.049,-0.049 -0.1,-0.093 -0.154,-0.134l-0.497,0.498c0.057,0.034 0.112,0.075 0.162,0.125l0.025,0.025c0.319,0.319 0.319,0.837 0,1.155l-1.359,1.36c-0.318,0.318 -0.837,0.318 -1.155,0l-0.025,-0.026c-0.319,-0.318 -0.319,-0.836 0,-1.155l0.615,-0.615c-0.107,-0.263 -0.158,-0.544 -0.153,-0.825l-0.951,0.951c-0.587,0.587 -0.587,1.547 0,2.133l0.025,0.026c0.587,0.586 1.547,0.586 2.133,0l1.359,-1.36c0.587,-0.586 0.587,-1.546 0,-2.133l-0.025,-0.025Z" style="fill:url(#_Linear1);"/></g><defs><linearGradient id="_Linear1" x1="0" y1="0" x2="1" y2="0" gradientUnits="userSpaceOnUse" gradientTransform="matrix(4.59028,-2.47406,2.47406,4.59028,101.862,20.3475)"><stop offset="0" style="stop-color:#39e56f;stop-opacity:1"/><stop offset="1" style="stop-color:#15ced6;stop-opacity:1"/></linearGradient></defs></svg>